<svg xmlns="http://www.w3.org/2000/svg" width="65.217" height="49.989" viewBox="0 0 65.217 49.989">
  <g id="Слой_x0020_1" transform="translate(-0.021 -0.014)">
    <g id="_1540408465728" transform="translate(0.021 0.006)">
      <g id="Group_3" data-name="Group 3">
        <g id="Group_2" data-name="Group 2" transform="translate(14.894 32.55)">
          <path id="Path_3" data-name="Path 3" d="M1786.71,3078.01a3.032,3.032,0,0,1-.4-.54,2.432,2.432,0,0,0-.292-.407.525.525,0,0,0-.064-.055,1.828,1.828,0,0,0-.558-.2,1.935,1.935,0,0,1-.93-.421.932.932,0,0,1-.1-.115.987.987,0,0,1-.078-.126l-2,1.684,1.946.4.023.007a.24.24,0,0,1,.07.028.185.185,0,0,1,.029.016l.03.023c.007.006.016.013.023.02a.222.222,0,0,1,.025.028l.02.024.018.031.016.029a.135.135,0,0,0,.012.035.275.275,0,0,1,.009.03.223.223,0,0,0,.005.041c.005.013,0,.016,0,.024l.064,1.981,2.645-2.23c-.029-.007-.058-.014-.087-.023a1.083,1.083,0,0,1-.437-.277Z" transform="translate(-1770.716 -3063.096)" fill="#fff" fill-rule="evenodd"/>
          <path id="Path_4" data-name="Path 4" d="M2334.54,3078.26a.744.744,0,0,1-.086.023l2.645,2.23.064-1.982a.208.208,0,0,1,0-.025.328.328,0,0,1,.006-.04.3.3,0,0,1,.01-.031.114.114,0,0,1,.011-.034.242.242,0,0,1,.017-.03.27.27,0,0,1,.018-.029c.007-.01.014-.018.021-.027l.023-.026.026-.021a.257.257,0,0,1,.028-.021c.01-.007.021-.011.031-.018l.028-.014.041-.012.022-.007,1.946-.4-2-1.684a.993.993,0,0,1-.078.127,1.688,1.688,0,0,1-1.028.536,1.044,1.044,0,0,0-.914.662,1.689,1.689,0,0,1-.836.818Z" transform="translate(-2314.677 -3063.067)" fill="#fff" fill-rule="evenodd"/>
          <path id="Path_5" data-name="Path 5" d="M2100.82,2196.99h0v3.337a1.025,1.025,0,0,1,.123-.049,1.67,1.67,0,0,1,1.127.167,1.111,1.111,0,0,0,1.18,0,1.668,1.668,0,0,1,1.127-.167,1.021,1.021,0,0,1,.122.049v-4.695h-3.679v1.356Z" transform="translate(-2084.512 -2195.63)" fill="#fff" fill-rule="evenodd"/>
          <path id="Path_6" data-name="Path 6" d="M2031.15,2667.07a2.948,2.948,0,1,0,0,4.166,2.948,2.948,0,0,0,0-4.166Z" transform="translate(-2010.924 -2659.231)" fill="#fff" fill-rule="evenodd"/>
          <path id="Path_7" data-name="Path 7" d="M2411.16,2197.04a67.241,67.241,0,0,1-14.929,1.675v3.766a2.422,2.422,0,0,0,.292.407.442.442,0,0,0,.064.055,1.807,1.807,0,0,0,.558.2,1.934,1.934,0,0,1,.93.422.963.963,0,0,1,.1.114,1.674,1.674,0,0,1,.194,1.134,1.828,1.828,0,0,0,.02.6,1.766,1.766,0,0,0,.324.47,1.738,1.738,0,0,1,.524,1.026,58.389,58.389,0,0,1,11.927,1.565c.286-.438.663-2.581.662-5.715s-.379-5.295-.667-5.72Z" transform="translate(-2375.539 -2197.019)" fill="#fff" fill-rule="evenodd"/>
          <path id="Path_8" data-name="Path 8" d="M1906.42,2561.27a.658.658,0,0,0,.687-.938,2.335,2.335,0,0,1,.052-.864,2.223,2.223,0,0,1,.456-.706c.177-.21.359-.427.359-.6s-.183-.392-.36-.6a2.207,2.207,0,0,1-.455-.706,2.292,2.292,0,0,1-.052-.864.659.659,0,0,0-.688-.938,2.281,2.281,0,0,1-.8-.313,1.289,1.289,0,0,1-.148-.127,2.964,2.964,0,0,1-.392-.531,2.439,2.439,0,0,0-.3-.416.4.4,0,0,0-.153-.1,1.232,1.232,0,0,0-.646.151,1.759,1.759,0,0,1-1.7,0,1.237,1.237,0,0,0-.646-.152c-.159.052-.309.29-.454.52a2.251,2.251,0,0,1-.54.659,2.283,2.283,0,0,1-.8.314.658.658,0,0,0-.687.938,2.31,2.31,0,0,1-.053.864,2.207,2.207,0,0,1-.455.707c-.177.211-.359.428-.36.6s.183.391.359.6a2.217,2.217,0,0,1,.456.706,2.285,2.285,0,0,1,.052.864.658.658,0,0,0,.686.939,2.284,2.284,0,0,1,.8.314,1.386,1.386,0,0,1,.147.127,2.955,2.955,0,0,1,.392.532,2.469,2.469,0,0,0,.3.416.4.4,0,0,0,.154.1,1.231,1.231,0,0,0,.646-.152,4.272,4.272,0,0,1,.464-.163h0a1.35,1.35,0,0,1,.773,0h0a4.2,4.2,0,0,1,.463.162,1.242,1.242,0,0,0,.646.152c.16-.052.309-.29.453-.521a2.255,2.255,0,0,1,.54-.659,2.278,2.278,0,0,1,.8-.314Zm-5.879-.527a3.655,3.655,0,1,1,2.586,1.073,3.656,3.656,0,0,1-2.586-1.073Z" transform="translate(-1884.984 -2548.24)" fill="#fff" fill-rule="evenodd"/>
          <path id="Path_9" data-name="Path 9" d="M1003.61,2197.04a67.231,67.231,0,0,0,14.929,1.675v3.766a2.438,2.438,0,0,1-.293.407.482.482,0,0,1-.064.055,1.8,1.8,0,0,1-.559.2,1.931,1.931,0,0,0-.93.422.915.915,0,0,0-.1.114,1.672,1.672,0,0,0-.193,1.134,1.838,1.838,0,0,1-.02.6,1.767,1.767,0,0,1-.324.47,1.739,1.739,0,0,0-.523,1.026,58.371,58.371,0,0,0-11.927,1.565c-.286-.438-.663-2.581-.662-5.715s.379-5.295.667-5.72Z" transform="translate(-1002.94 -2197.019)" fill="#fff" fill-rule="evenodd"/>
        </g>
        <path id="Path_10" data-name="Path 10" d="M4.031,23.13a16.259,16.259,0,0,0-.958-3.383,2.066,2.066,0,0,1-.171-.786c.034-1.333.1-3.765,0-6.43a.624.624,0,0,0-.411-.683l-.856-.376a.269.269,0,0,0-.411.239c-.137,2.973-.034,5.747,0,7.182a3.333,3.333,0,0,1-.171.854A11.532,11.532,0,0,0,.026,23.164c-.034.239.1.615.411.649a14.516,14.516,0,0,0,3.286,0,.55.55,0,0,0,.308-.683Zm29.335-3.835h0a22.935,22.935,0,0,1-3.081-.239A164.13,164.13,0,0,1,12.759,15.3c-.308-.068-.958-.034-1.027.581a32.931,32.931,0,0,0,.2,8.44,2.119,2.119,0,0,0,.856,1.3c13.247,5.468,27.384,5.946,40.7-.068a1.135,1.135,0,0,0,.548-.752,30.667,30.667,0,0,0,.205-9.7.345.345,0,0,0-.445-.273c-8.66,2.324-16.91,4.032-17.834,4.2a11.029,11.029,0,0,1-2.6.274ZM64.275,7.779S49.419,1.765,35.453.193a16.091,16.091,0,0,0-4.792,0A157.229,157.229,0,0,0,1.84,7.779c-1.266.478-1.3.923,0,1.265,0,0,9.721,4.51,28.822,7.586a14.1,14.1,0,0,0,4.792,0s17.629-3.588,28.822-7.586C65.541,8.565,65.576,8.121,64.275,7.779ZM33.057,8.77c-1.848,0-3.354-.444-3.354-.957s1.506-.957,3.354-.957,3.355.444,3.355.957C36.412,8.36,34.906,8.77,33.057,8.77Z" transform="translate(-0.021 -0.006)" fill="#fff" fill-rule="evenodd"/>
      </g>
    </g>
  </g>
</svg>
